<?xml version="1.0" standalone="no"?><!-- Generator: Gravit.io --><svg xmlns="http://www.w3.org/2000/svg" xmlns:xlink="http://www.w3.org/1999/xlink" style="isolation:isolate" width="128" height="75"><path d=" M 17.077428089488592 59.001214105231654 Q 16.81331232244314 58.93518516347028 16.72087180397723 58.79652438577142 Q 16.62843128551132 58.65786360807256 16.62843128551132 58.48618835949301 Q 16.62843128551132 58.44657099443619 16.635034179687455 58.43336520608392 Q 16.641637073863592 58.420159417731654 16.641637073863592 58.380542052674826 Q 16.747283380681772 56.95431691062937 16.872738370028365 55.38943099088506 Q 16.998193359374955 53.82454507114074 17.143457031249955 52.206835997987326 Q 17.288720703124955 50.58912692483392 17.433984374999955 48.978020745856654 Q 17.579248046874955 47.36691456687937 17.724511718749955 45.84824890636801 L 17.711305930397682 45.84824890636801 Q 17.658482776988592 45.84824890636801 17.414175692471545 45.93408653065779 Q 17.169868607954502 46.01992415494756 16.859532581676092 46.11896756758961 Q 16.549196555397682 46.218010980231654 16.23225763494314 46.29724571034529 Q 15.915318714488592 46.37648044045892 15.7172318892045 46.37648044045892 Q 15.545556640624955 46.37648044045892 15.472924804687455 46.24442255693619 Q 15.400292968749955 46.11236467341347 15.400292968749955 45.95389521318619 Q 15.400292968749955 45.83504311801574 15.439910333806774 45.72939681119756 Q 15.796466619318137 44.69934531972029 16.179434481534045 43.80135171176574 Q 16.562402343749955 42.90335810381119 16.945370205965865 41.95254134244756 Q 17.949010120738592 41.41110402000437 19.031884765624955 41.00832747526006 Q 20.11475941051132 40.60555093051574 21.217442737926092 40.33483226929415 Q 22.320126065340865 40.06411360807256 23.4162064985795 39.92545283037369 Q 24.51228693181814 39.786792052674826 25.542338423295412 39.786792052674826 Q 26.98176935369314 39.786792052674826 28.256127929687455 40.09052518477711 Q 29.530486505681772 40.39425831687937 30.474700372869272 41.00832747526006 Q 31.418914240056772 41.62239663364074 31.966954456676092 42.55340471247597 Q 32.514994673295405 43.48441279131119 32.514994673295405 44.73896268477711 Q 32.514994673295405 45.28040000722029 32.2772904829545 45.782219964606654 Q 32.03958629261359 46.28403992199301 31.66322132457382 46.73963962014642 Q 31.286856356534045 47.195239318299826 30.824653764204502 47.58481007469187 Q 30.362451171874955 47.97438083108392 29.913454367897682 48.29131975153847 Q 30.547332208806772 48.75352234386801 31.055755060369272 49.12988731190778 Q 31.564177911931772 49.50625227994756 31.92073419744314 49.91563171886801 Q 32.2772904829545 50.32501115778847 32.46217151988632 50.83343400935097 Q 32.64705255681814 51.34185686091347 32.64705255681814 52.06817522028847 Q 32.64705255681814 53.17746144187937 32.25748180042609 54.18770425082824 Q 31.867911044034045 55.19794705977711 31.187812943892002 56.06292619685097 Q 30.507714843749955 56.927905333924826 29.57670676491473 57.62781211659528 Q 28.6456986860795 58.32771889926574 27.556221147017 58.82293596247597 Q 26.4667436079545 59.31815302568619 25.258413973721545 59.58887168690778 Q 24.050084339488592 59.85959034812937 22.82194602272723 59.85959034812937 Q 22.372949218749955 59.85959034812937 21.620219282670412 59.76714982966347 Q 20.867489346590865 59.67470931119756 20.04212757457382 59.54925432185097 Q 19.216765802556772 59.42379933250437 18.417815607244272 59.27193276645324 Q 17.618865411931772 59.12006620040211 17.077428089488592 59.001214105231654 Z  M 23.16529651988632 44.51446428278847 Q 22.91438654119314 46.072747308356654 22.742711292613592 47.67725059315779 Q 22.571036044034045 49.28175387795892 22.445581054687455 50.793816644294154 Q 22.320126065340865 52.30587941062937 22.227685546874955 53.66607561091347 Q 22.135245028409045 55.02627181119756 22.04280450994314 56.095940667731654 Q 22.571036044034045 56.095940667731654 23.18510520241473 56.03651462014642 Q 23.799174360795412 55.97708857256119 24.406640624999955 55.83182490068619 Q 25.0141068892045 55.68656122881119 25.588558682528365 55.45545993264642 Q 26.16301047585223 55.224358636481654 26.59880149147723 54.88100813932256 Q 27.03459250710223 54.53765764216347 27.298708274147682 54.06885215565778 Q 27.56282404119314 53.60004666915211 27.56282404119314 52.99258040494756 Q 27.56282404119314 52.62281833108392 27.3383256392045 52.33889388151006 Q 27.113827237215865 52.05496943193619 26.76387384588064 51.85027971247597 Q 26.413920454545412 51.64558999301574 25.991335227272682 51.50692921531687 Q 25.568749999999955 51.36826843761801 25.16597345525564 51.28243081332824 Q 24.76319691051132 51.19659318903847 24.426449307528365 51.15037292980551 Q 24.089701704545412 51.10415267057256 23.918026455965865 51.07774109386801 Q 23.733145419034045 51.05132951716347 23.680322265624955 50.94568321034528 Q 23.627499112215865 50.84003690352711 23.627499112215865 50.681567443299826 Q 23.627499112215865 50.50989219472028 23.83879172585223 50.16654169756119 Q 24.050084339488592 49.82319120040211 24.41984641335223 49.228930724549826 L 24.974489524147682 48.34414290494756 Q 25.331045809659045 48.212085021424826 25.74702814275564 48.01399819614074 Q 26.16301047585223 47.815911370856654 26.519566761363592 47.558398497987326 Q 26.876123046874955 47.30088562511801 27.113827237215865 46.977343810487326 Q 27.351531427556772 46.653801995856654 27.351531427556772 46.27083413364074 Q 27.351531427556772 45.18795948875437 26.882725941051092 44.61350769543051 Q 26.413920454545412 44.03905590210665 25.52913263494314 44.03905590210665 Q 24.525492720170412 44.03905590210665 23.16529651988632 44.51446428278847 Z  M 40.042294034090865 50.16654169756119 Q 40.042294034090865 51.117358458924826 40.24698375355109 52.07477811446461 Q 40.45167347301132 53.03219777000437 40.92708185369314 53.79813349443619 Q 41.40249023437495 54.56406921886801 42.181631747159045 55.039477599549826 Q 42.96077325994314 55.514885980231654 44.109676846590865 55.514885980231654 Q 44.99446466619314 55.46206282682256 45.661356977982905 55.151726800544154 Q 46.328249289772685 54.84139077426574 46.81026056463064 54.34617371105551 Q 47.29227183948859 53.85095664784528 47.60921075994314 53.21047591276006 Q 47.926149680397685 52.569995177674826 48.1110307173295 51.86348550082824 Q 48.29591175426132 51.156975823981654 48.36854359019882 50.41745167625437 Q 48.44117542613632 49.67792752852711 48.44117542613632 48.99122653420892 Q 48.44117542613632 48.05361556119756 48.19026544744314 47.17543063577142 Q 47.93935546874995 46.29724571034529 47.43753551136359 45.62375050437937 Q 46.935715553977225 44.95025529841347 46.18958851207382 44.54087585949301 Q 45.443461470170405 44.13149642057256 44.45302734374995 44.13149642057256 Q 43.673885830965865 44.13149642057256 43.046610884232905 44.42202376432256 Q 42.41933593749995 44.71255110807256 41.930721768465865 45.19456238293051 Q 41.44210759943177 45.67657365778847 41.092154208096545 46.30384860452142 Q 40.74220081676132 46.93112355125437 40.511099520596545 47.598015863044154 Q 40.27999822443177 48.26490817483392 40.16774902343745 48.93180048662369 Q 40.05549982244314 49.59869279841347 40.042294034090865 50.16654169756119 Z  M 42.617422762784045 59.85959034812937 Q 40.63655450994314 59.85959034812937 39.07827148437495 59.12006620040211 Q 37.51998845880677 58.380542052674826 36.443716708096545 57.11938926503278 Q 35.36744495738632 55.85823647739074 34.79299316406245 54.20091003918051 Q 34.21854137073859 52.54358360097028 34.21854137073859 50.69477323165211 Q 34.21854137073859 48.62146446034528 34.80619895241473 46.871697503669154 Q 35.393856534090865 45.12193054699301 36.450319602272685 43.76833724088506 Q 37.5067826704545 42.41474393477711 38.96602228338064 41.48373585594187 Q 40.42526189630677 40.55272777710665 42.16842595880677 40.10373097312937 Q 42.326895419034045 40.10373097312937 42.41273304332382 39.85282099443619 Q 42.49857066761359 39.60191101574301 42.56459960937495 39.29817788364074 Q 42.63062855113632 38.99444475153847 42.72306906960223 38.74353477284529 Q 42.81550958806814 38.49262479415211 42.987184836647685 38.49262479415211 Q 45.54910777698859 38.75674056119756 47.596004971590865 39.39722129628279 Q 49.64290216619314 40.03770203136801 51.06912730823859 41.22622298307256 Q 52.495352450284045 42.41474393477711 53.254685280539725 44.23053983321461 Q 54.01401811079541 46.04633573165211 54.01401811079541 48.66108182540211 Q 54.01401811079541 50.33821694614074 53.60463867187495 51.81726524159528 Q 53.1952592329545 53.296313537049826 52.455735085227225 54.54426053633961 Q 51.71621093749995 55.79220753562937 50.679556551846545 56.77603876787369 Q 49.64290216619314 57.75987000011801 48.37514648437495 58.44657099443619 Q 47.10739080255677 59.13327198875437 45.64815118963064 59.49643116844187 Q 44.1889115767045 59.85959034812937 42.617422762784045 59.85959034812937 Z  M 67.06133700284087 41.47713296176574 Q 67.16698330965905 41.04134194614074 67.24621803977269 40.84325512085665 Q 67.32545276988631 40.64516829557256 67.58956853693178 40.57913935381119 L 71.0098677201704 39.77358626432256 Q 71.16833718039769 39.72076311091347 71.3532182173295 39.72076311091347 Q 71.52489346590905 39.72076311091347 71.60412819602269 39.83961520608392 Q 71.68336292613631 39.95846730125437 71.68336292613631 40.28861201006119 Q 71.60412819602269 40.60555093051574 71.55130504261359 41.25923745395324 Q 71.4984818892045 41.91292397739074 71.47207031249995 42.692065490174826 Q 71.4456587357954 43.47120700295892 71.43245294744314 44.25695140991915 Q 71.41924715909087 45.04269581687937 71.41924715909087 45.62375050437937 L 71.41924715909087 46.35006886375437 Q 71.41924715909087 47.16882774159529 71.40604137073859 48.13285029131119 Q 71.39283558238631 49.09687284102711 71.3730268998579 50.08730696744756 Q 71.3532182173295 51.07774109386801 71.32680664062495 52.04176364358392 Q 71.3003950639204 53.005786193299826 71.27398348721587 53.85095664784528 L 71.19474875710222 56.10914645608392 Q 71.18154296874995 56.17517539784528 71.18154296874995 56.22799855125437 Q 71.18154296874995 56.28082170466347 71.18154296874995 56.33364485807256 L 71.18154296874995 56.531731683356654 Q 71.18154296874995 56.75623008534528 71.18814586292609 56.90809665139642 Q 71.19474875710222 57.05996321744756 71.19474875710222 57.17881531261801 Q 71.19474875710222 57.31087319614074 71.17494007457381 57.41651950295892 Q 71.1551313920454 57.52216580977711 71.07589666193178 57.621209222419154 Q 70.99666193181814 57.72025263506119 70.85800115411928 57.82589894187937 Q 70.7193403764204 57.93154524869756 70.4816361860795 58.090014708924826 Q 70.34957830255678 58.18245522739074 70.0458451704545 58.36073337014642 Q 69.74211203835222 58.53901151290211 69.37234996448859 58.76350991489074 Q 69.00258789062495 58.98800831687937 68.60641424005678 59.22571250722028 Q 68.21024058948859 59.46341669756119 67.88009588068178 59.654900628669154 Q 67.54995117187495 59.84638455977711 67.34526145241472 59.96523665494756 Q 67.1405717329545 60.08408875011801 67.1405717329545 60.08408875011801 L 61.01308593749995 50.65515586659528 L 60.4584428267045 58.380542052674826 Q 60.445237038352225 58.48618835949301 60.412222567471545 58.60504045466347 Q 60.379208096590865 58.72389254983392 60.233944424715865 58.78992149159528 Q 60.11509232954541 58.84274464500437 59.82456498579541 58.95499384599869 Q 59.53403764204541 59.06724304699301 59.144466885653365 59.21250671886801 Q 58.75489612926132 59.35777039074301 58.32570800781245 59.509636956794154 Q 57.89651988636359 59.66150352284528 57.51355202414768 59.78695851219187 Q 57.13058416193177 59.91241350153847 56.83345392400564 59.99164823165211 Q 56.5363236860795 60.07088296176574 56.43067737926132 60.07088296176574 Q 56.232590553977225 60.07088296176574 56.1005326704545 59.96523665494756 Q 55.96847478693177 59.85959034812937 55.96847478693177 59.582268792731654 Q 56.1005326704545 57.93154524869756 56.272207919034045 55.983691466737326 Q 56.44388316761359 54.03583768477711 56.602352627840865 51.988940490174826 Q 56.76082208806814 49.94204329557256 56.899482865767 47.90174899514642 Q 57.038143643465865 45.86145469472029 57.13058416193177 44.02585011375437 Q 57.13058416193177 43.97302696034529 56.965511807528365 43.67589672241915 Q 56.80043945312495 43.37876648449301 56.595749733664725 43.02881309315779 Q 56.3910600142045 42.67885970182256 56.22598765980109 42.36852367554415 Q 56.06091530539768 42.05818764926574 56.06091530539768 41.97895291915211 Q 56.06091530539768 41.88651240068619 56.159958718039725 41.80727767057256 Q 56.25900213068177 41.72804294045892 56.48350053267041 41.59598505693619 L 60.009446022727225 39.60191101574301 Q 60.049063387784045 39.60191101574301 60.121695223721545 39.58870522739074 Q 60.194327059659045 39.57549943903847 60.24715021306814 39.57549943903847 Q 60.39241388494314 39.57549943903847 60.47825150923291 39.60851390991915 Q 60.56408913352268 39.641528380799826 60.65652965198859 39.81320362937937 L 67.06133700284087 51.36826843761801 L 67.06133700284087 41.47713296176574 Z  M 73.83590642755678 50.64195007824301 Q 73.83590642755678 49.123284417731654 74.185859818892 47.73007374656687 Q 74.53581321022722 46.33686307540211 75.18289683948859 45.12853344116915 Q 75.82998046874995 43.92020380693619 76.7477827592329 42.93637257469187 Q 77.66558504971587 41.95254134244756 78.80128284801131 41.24603166560097 Q 79.93698064630678 40.53952198875437 81.26416237571019 40.15655412653847 Q 82.59134410511359 39.77358626432256 84.05718661221586 39.77358626432256 Q 85.21929598721586 39.77358626432256 86.097480912642 39.92545283037369 Q 86.97566583806814 40.077319396424826 87.62935236150564 40.30842069258961 Q 88.28303888494314 40.53952198875437 88.72543279474426 40.81684354415211 Q 89.1678267045454 41.094165099549826 89.4583540482954 41.34507507824301 Q 89.44514825994314 41.34507507824301 89.44514825994314 41.43751559670892 Q 89.44514825994314 41.63560242199301 89.47816273082381 42.16383395608392 Q 89.5111772017045 42.692065490174826 89.55739746093745 43.33914911943619 Q 89.6036177201704 43.98623274869756 89.63663219105109 44.653125060487326 Q 89.66964666193176 45.32001737227711 89.66964666193176 45.80863154131119 Q 89.66964666193176 45.887866271424826 89.61682350852269 45.98690968406687 Q 89.56400035511359 46.08595309670892 89.35270774147723 46.08595309670892 Q 89.23385564630676 46.08595309670892 89.06218039772723 46.04633573165211 Q 88.7848588423295 45.96710100153847 88.36227361505676 45.68317655196461 Q 87.93968838778405 45.39925210239074 87.37844238281245 45.088916076112326 Q 86.81719637784086 44.77858004983392 86.12389248934655 44.53427296531687 Q 85.43058860085223 44.289965880799826 84.61182972301131 44.289965880799826 Q 83.52895507812495 44.289965880799826 82.64416725852269 44.74556557895324 Q 81.7593794389204 45.20116527710665 81.13870738636359 46.01332126077142 Q 80.51803533380678 46.82547724443619 80.17468483664769 47.94136636020324 Q 79.83133433948859 49.05725547597028 79.83133433948859 50.36462852284528 Q 79.83133433948859 51.51353210949301 80.04262695312495 52.51717202426574 Q 80.25391956676131 53.52081193903847 80.68310768821019 54.25373319258961 Q 81.11229580965905 54.98665444614074 81.74617365056814 55.40923967341347 Q 82.38005149147723 55.83182490068619 83.23842773437495 55.83182490068619 Q 84.07039240056814 55.83182490068619 85.12685546874995 55.475268615174826 L 85.43058860085223 53.61325245750437 L 82.90828302556814 53.61325245750437 Q 83.19881036931814 52.01535206687937 83.4101029829545 51.10415267057256 Q 83.62139559659086 50.19295327426574 83.80627663352269 49.73075068193619 Q 83.9911576704545 49.268548089606654 84.18924449573859 49.14969599443619 Q 84.38733132102269 49.03084389926574 84.65144708806814 49.03084389926574 L 91.59769176136359 49.03084389926574 Q 91.90142489346586 49.03084389926574 92.04008567116473 49.07046126432256 Q 92.17874644886359 49.11007862937937 92.17874644886359 49.34778281972028 Q 92.17874644886359 49.46663491489074 92.15233487215905 49.631707269294154 Q 92.1259232954545 49.79677962369756 92.08630593039769 50.03448381403847 L 91.42601651278405 52.25305625722028 Q 91.30716441761359 52.67564148449301 91.22792968749995 52.90674278065778 Q 91.14869495738631 53.13784407682256 91.02984286221586 53.25009327781687 Q 90.9109907670454 53.36234247881119 90.70630104758519 53.38215116133961 Q 90.50161132812495 53.40195984386801 90.11864346590905 53.40195984386801 Q 89.90735085227269 53.40195984386801 89.86773348721586 53.57363509244756 Q 89.82811612215905 53.74531034102711 89.8017045454545 53.93019137795892 Q 89.72246981534086 54.51124606545892 89.64323508522723 55.08569785878278 Q 89.56400035511359 55.660149652106654 89.49136851917609 56.15536671531687 Q 89.41873668323859 56.65058377852711 89.33950195312495 57.02694874656687 Q 89.26026722301131 57.403313714606654 89.18103249289769 57.57498896318619 Q 88.28303888494314 58.14283786233392 87.550117631392 58.57202598378278 Q 86.81719637784086 59.001214105231654 86.09087801846586 59.28513855480551 Q 85.36455965909086 59.56906300437937 84.55900656960223 59.71432667625437 Q 83.75345348011359 59.85959034812937 82.71019620028405 59.85959034812937 Q 80.84818004261359 59.85959034812937 79.22386807528405 59.18609514216347 Q 77.5995561079545 58.51259993619756 76.40443226207381 57.291064513612326 Q 75.20930841619314 56.06952909102711 74.52260742187495 54.37918818193619 Q 73.83590642755678 52.68884727284528 73.83590642755678 50.64195007824301 Z  M 109.74244495738631 40.28861201006119 Q 109.71603338068176 40.64516829557256 109.6500044389204 41.33847218406687 Q 109.58397549715905 42.03177607256119 109.49813787286926 42.909960997987326 Q 109.4123002485795 43.78814592341347 109.31985973011359 44.75216847312937 Q 109.22741921164769 45.71619102284529 109.1415815873579 46.59437594827142 Q 109.05574396306814 47.47256087369756 108.98971502130676 48.18567344472028 Q 108.9236860795454 48.89878601574301 108.89727450284086 49.25534230125437 Q 108.61995294744314 52.06817522028847 107.95306063565336 54.08205794401006 Q 107.28616832386359 56.095940667731654 106.20329367897723 57.37690213790211 Q 105.12041903409086 58.65786360807256 103.60835626775564 59.25872697810097 Q 102.0962935014204 59.85959034812937 100.1154252485795 59.85959034812937 Q 98.7552290482954 59.85959034812937 97.55350230823859 59.364373284919154 Q 96.35177556818176 58.86915622170892 95.45378196022723 57.97116261375437 Q 94.55578835227269 57.073169005799826 94.0341597123579 55.81201621815778 Q 93.51253107244314 54.55086343051574 93.51253107244314 53.005786193299826 Q 93.51253107244314 52.80769936801574 93.54554554332381 52.28607072810097 Q 93.5785600142045 51.76444208818619 93.63798606178973 51.011712152106654 Q 93.69741210937495 50.25898221602711 93.77004394531245 49.301562560487326 Q 93.84267578124995 48.34414290494756 93.92191051136359 47.26126826006119 L 94.08037997159086 45.06910739358392 Q 94.1596147017045 43.86738065352711 94.19923206676131 43.06843045821461 Q 94.23884943181814 42.26948026290211 94.28506969105109 41.78086609386801 Q 94.33128995028405 41.29225192483392 94.42373046874995 41.06775352284529 Q 94.51617098721586 40.84325512085665 94.71425781249995 40.77722617909529 L 99.21743164062495 39.77358626432256 Q 99.3891068892045 39.72076311091347 99.57398792613631 39.72076311091347 Q 99.78528053977269 39.72076311091347 99.85791237571019 39.83961520608392 Q 99.93054421164769 39.95846730125437 99.93054421164769 40.28861201006119 L 98.92690429687495 50.69477323165211 Q 98.9004927201704 51.156975823981654 98.83446377840905 51.698413146424826 Q 98.76843483664769 52.23985046886801 98.76843483664769 52.80769936801574 Q 98.76843483664769 53.151049865174826 98.85427246093745 53.56042930409528 Q 98.94011008522723 53.96980874301574 99.16460848721586 54.33296792270324 Q 99.3891068892045 54.69612710239074 99.77867764559655 54.94043418690778 Q 100.16824840198859 55.184741271424826 100.7889204545454 55.184741271424826 Q 101.54165039062495 55.184741271424826 102.0038529829545 54.861199456794154 Q 102.46605557528405 54.53765764216347 102.74337713068176 54.00282321389642 Q 103.0206986860795 53.46798878562937 103.14615367542609 52.787890685487326 Q 103.27160866477269 52.10779258534528 103.35084339488631 51.39468001432256 Q 103.41687233664769 50.56271534812937 103.50931285511359 49.44022333818619 Q 103.6017533735795 48.31773132824301 103.6941938920454 47.03676985807256 L 104.07716175426131 41.76766030551574 Q 104.10357333096586 41.529956115174826 104.110176225142 41.37148665494756 Q 104.11677911931814 41.21301719472029 104.14319069602269 41.10737088790211 Q 104.16960227272723 41.00172458108392 104.255439897017 40.948901427674826 Q 104.34127752130676 40.89607827426574 104.52615855823859 40.86966669756119 L 109.02933238636359 39.77358626432256 Q 109.20100763494314 39.72076311091347 109.38588867187495 39.72076311091347 Q 109.57076970880676 39.72076311091347 109.65660733309655 39.83301231190779 Q 109.74244495738631 39.94526151290211 109.74244495738631 40.28861201006119 Z " fill-rule="evenodd" fill="rgb(255,255,255)" stroke-width="1" stroke="rgba(0,0,0,0)"/><rect x="4" y="27.11134816062938" width="118.99999999999997" height="44.895454545454555" transform="matrix(1,0,0,1,0,0)" fill="rgba(0,0,0,0)" stroke-width="3" stroke="rgb(255,255,255)"/><rect x="103.2974537599486" y="15.472063268578458" width="3.342315967107311" height="12.448687408286519" transform="matrix(0.9841631791014368,0.17726487779860176,-0.17726487779860176,0.9841631791014368,5.508380034840911,-18.263646022031466)" fill="rgb(255,255,255)" stroke="none"/><mask id="_mask_u8GedkAwmBRwH6emw87j1Elv06WD6WCb"><rect x="103.2974537599486" y="15.472063268578458" width="3.342315967107311" height="12.448687408286519" transform="matrix(0.9841631791014368,0.17726487779860176,-0.17726487779860176,0.9841631791014368,5.508380034840911,-18.263646022031466)" fill="white" stroke="none"/></mask><rect x="103.2974537599486" y="15.472063268578458" width="3.342315967107311" height="12.448687408286519" transform="matrix(0.9841631791014368,0.17726487779860176,-0.17726487779860176,0.9841631791014368,5.508380034840911,-18.263646022031466)" fill="none" stroke="none" stroke-width="2" mask="url(#_mask_u8GedkAwmBRwH6emw87j1Elv06WD6WCb)"/><rect x="109.89750532948186" y="0.8867911738926395" width="3.342315967107311" height="17.643059956538465" transform="matrix(0.7480967597163825,0.6635896609365228,-0.6635896609365228,0.7480967597163825,34.54684934429157,-71.59025390309476)" fill="rgb(255,255,255)" stroke="none"/><mask id="_mask_V2DHPlpdFPkiBSFugR5fBUBhfXw9y73D"><rect x="109.89750532948186" y="0.8867911738926395" width="3.342315967107311" height="17.643059956538465" transform="matrix(0.7480967597163825,0.6635896609365228,-0.6635896609365228,0.7480967597163825,34.54684934429157,-71.59025390309476)" fill="white" stroke="none"/></mask><rect x="109.89750532948186" y="0.8867911738926395" width="3.342315967107311" height="17.643059956538465" transform="matrix(0.7480967597163825,0.6635896609365228,-0.6635896609365228,0.7480967597163825,34.54684934429157,-71.59025390309476)" fill="none" stroke="none" stroke-width="2" mask="url(#_mask_V2DHPlpdFPkiBSFugR5fBUBhfXw9y73D)"/></svg>